<svg width="144" height="100" viewBox="0 0 144 100" fill="none" xmlns="http://www.w3.org/2000/svg">
<path d="M41.4704 1.18531C41.6277 -0.395103 43.55 -0.395103 43.7073 1.18531L45.026 14.4435C46.7288 31.5634 58.0431 45.0612 72.3935 47.0925L83.507 48.6657C84.8319 48.8534 84.8319 51.1467 83.507 51.3343L72.3935 52.9075C58.0431 54.9388 46.7288 68.4366 45.026 85.5563L43.7073 98.8146C43.55 100.395 41.6277 100.395 41.4704 98.8146L40.1517 85.5563C38.449 68.4366 27.1346 54.9388 12.7841 52.9075L1.67057 51.3343C0.345812 51.1467 0.345812 48.8534 1.67057 48.6657L12.7841 47.0925C27.1346 45.0612 38.449 31.5634 40.1517 14.4435L41.4704 1.18531Z" fill="#FEEBFF"/>
<path d="M100.293 1.18531C100.45 -0.395103 102.372 -0.395103 102.53 1.18531L103.848 14.4435C105.551 31.5634 116.865 45.0612 131.216 47.0925L142.329 48.6657C143.654 48.8534 143.654 51.1467 142.329 51.3343L131.216 52.9075C116.865 54.9388 105.551 68.4366 103.848 85.5563L102.53 98.8146C102.372 100.395 100.45 100.395 100.293 98.8146L98.974 85.5563C97.2712 68.4366 85.9569 54.9388 71.6063 52.9075L60.4928 51.3343C59.1681 51.1467 59.1681 48.8534 60.4928 48.6657L71.6063 47.0925C85.9569 45.0612 97.2712 31.5634 98.974 14.4435L100.293 1.18531Z" fill="#FEEBFF"/>
</svg>
